<svg width="699" height="159" viewBox="0 0 699 159" fill="none" xmlns="http://www.w3.org/2000/svg">
<g filter="url(#filter0_f_10_805)">
<path d="M40.9216 117V41.8859H45.7138L77.5871 75.3195L109.126 41.8859H113.918V117H99.6533V69.8586L79.7046 91.5905H75.5811L55.2981 69.8586V117H40.9216ZM169.084 118.672C163.66 118.672 158.571 117.706 153.816 115.774C149.135 113.842 145.012 111.168 141.445 107.75C137.879 104.258 135.056 100.135 132.975 95.3796C130.969 90.5503 129.966 85.3124 129.966 79.6658C129.966 74.0193 130.969 68.8185 132.975 64.0635C135.056 59.2342 137.879 55.1107 141.445 51.693C145.012 48.2011 149.135 45.4893 153.816 43.5575C158.571 41.6258 163.66 40.66 169.084 40.66C174.507 40.66 179.56 41.6258 184.24 43.5575C188.995 45.4893 193.156 48.2011 196.722 51.693C200.288 55.1107 203.075 59.2342 205.081 64.0635C207.161 68.8185 208.201 74.0193 208.201 79.6658C208.201 85.3124 207.161 90.5503 205.081 95.3796C203.075 100.135 200.288 104.258 196.722 107.75C193.156 111.168 188.995 113.842 184.24 115.774C179.56 117.706 174.507 118.672 169.084 118.672ZM169.084 104.964C173.764 104.964 177.925 103.849 181.566 101.621C185.28 99.3916 188.178 96.3826 190.258 92.5935C192.413 88.8043 193.49 84.4951 193.49 79.6658C193.49 74.8365 192.413 70.5273 190.258 66.7382C188.178 62.8747 185.28 59.8657 181.566 57.7111C177.925 55.4822 173.764 54.3677 169.084 54.3677C164.403 54.3677 160.205 55.4822 156.49 57.7111C152.85 59.8657 149.952 62.8747 147.798 66.7382C145.717 70.5273 144.677 74.8365 144.677 79.6658C144.677 84.4951 145.717 88.8043 147.798 92.5935C149.952 96.3826 152.85 99.3916 156.49 101.621C160.205 103.849 164.403 104.964 169.084 104.964ZM224.249 117V42.3316H254.228C257.646 42.3316 260.989 42.8146 264.258 43.7804C267.601 44.7463 270.573 46.1951 273.174 48.1268C275.848 50.0585 277.966 52.5475 279.526 55.5936C281.161 58.5655 281.978 62.0946 281.978 66.1809C281.978 70.7873 280.715 74.6879 278.189 77.8827C275.737 81.0032 272.542 83.3807 268.604 85.0152C264.741 86.5754 260.58 87.3555 256.123 87.3555C255.008 87.3555 253.559 87.2441 251.776 87.0212C250.067 86.7983 248.247 86.5383 246.315 86.2411C244.384 85.9439 242.563 85.6467 240.855 85.3495C239.22 84.978 237.994 84.6809 237.177 84.458V75.208C239.257 75.951 241.597 76.5454 244.198 76.9911C246.798 77.4369 249.399 77.6598 251.999 77.6598C256.754 77.6598 260.469 76.6197 263.144 74.5393C265.893 72.459 267.267 69.6729 267.267 66.1809C267.267 62.4661 265.818 59.68 262.921 57.8225C260.023 55.8908 256.457 54.925 252.222 54.925H238.626V117H224.249ZM265.818 117L236.954 84.458L249.213 79.7773L285.21 117H265.818ZM297.692 117V42.3316H328.339C331.757 42.3316 335.1 42.9632 338.369 44.2262C341.713 45.4893 344.684 47.3095 347.285 49.687C349.959 52.0645 352.077 54.9621 353.637 58.3798C355.272 61.7974 356.089 65.6609 356.089 69.9701C356.089 75.3195 354.826 80.0002 352.3 84.0122C349.774 88.0242 346.356 91.1447 342.047 93.3736C337.812 95.6025 333.206 96.717 328.228 96.717C324.216 96.717 320.649 96.3455 317.529 95.6025C314.483 94.7852 312.068 93.8565 310.285 92.8164V80.7803C311.919 81.5975 314.186 82.3777 317.083 83.1206C319.981 83.8636 322.99 84.2351 326.11 84.2351C330.865 84.2351 334.58 82.972 337.255 80.4459C340.004 77.9198 341.378 74.4279 341.378 69.9701C341.378 66.9239 340.635 64.3607 339.149 62.2804C337.738 60.2 335.843 58.6027 333.466 57.4882C331.088 56.3738 328.488 55.8165 325.664 55.8165H312.068V117H297.692ZM422.287 117V42.3316H436.664V117H422.287ZM371.691 117V42.3316H386.068V117H371.691ZM384.285 86.0182V72.9791H425.408V86.0182H384.285ZM458.507 117V42.3316H511.221V54.925H472.884V104.184H511.221V117H458.507ZM466.977 85.1266V72.7562H506.874V85.1266H466.977ZM560.814 118.56C554.87 118.56 549.484 117.334 544.654 114.883C539.825 112.356 535.962 108.79 533.064 104.184C530.241 99.5031 528.829 93.9308 528.829 87.467V42.1088H543.206V86.6869C543.206 90.6989 543.949 94.0423 545.435 96.717C546.92 99.3916 549.001 101.398 551.675 102.735C554.35 103.998 557.396 104.63 560.814 104.63C564.232 104.63 567.241 103.998 569.841 102.735C572.516 101.398 574.596 99.3916 576.082 96.717C577.642 94.0423 578.422 90.6989 578.422 86.6869V42.1088H592.799V87.467C592.799 93.9308 591.35 99.5031 588.452 104.184C585.629 108.79 581.803 112.356 576.974 114.883C572.219 117.334 566.832 118.56 560.814 118.56ZM630.69 118.337C626.307 118.337 622.146 117.594 618.208 116.108C614.271 114.548 610.853 112.765 607.955 110.759V96.9398C611.076 99.1688 614.642 101.1 618.654 102.735C622.74 104.37 627.05 105.187 631.582 105.187C634.851 105.187 637.563 104.444 639.717 102.958C641.946 101.472 643.061 99.4288 643.061 96.8284C643.061 95.4168 642.615 94.1909 641.723 93.1507C640.832 92.0363 639.68 91.0704 638.268 90.2531C636.931 89.4359 635.519 88.7672 634.034 88.2471L622.332 83.5664C618.543 82.0062 615.571 80.223 613.416 78.217C611.336 76.1367 609.85 73.8335 608.958 71.3074C608.141 68.7813 607.732 66.1066 607.732 63.2834C607.732 58.8255 608.921 54.925 611.299 51.5816C613.75 48.2382 616.982 45.6379 620.994 43.7804C625.006 41.923 629.279 40.9943 633.811 40.9943C638.194 40.9943 642.095 41.5887 645.512 42.7774C649.004 43.9662 651.902 45.3407 654.205 46.9009V60.7201C651.679 59.0856 648.819 57.5997 645.624 56.2623C642.429 54.8507 638.937 54.1448 635.148 54.1448C633.216 54.1448 631.285 54.4792 629.353 55.1479C627.421 55.8165 625.824 56.8567 624.561 58.2683C623.372 59.6057 622.778 61.3145 622.778 63.3948C622.778 65.9209 623.855 67.8526 626.009 69.19C628.164 70.5273 630.764 71.8647 633.811 73.202L642.949 77.214C648.224 79.4429 652.125 82.0433 654.651 85.0152C657.177 87.9871 658.44 91.6648 658.44 96.0483C658.44 100.432 657.177 104.295 654.651 107.639C652.125 110.908 648.744 113.508 644.509 115.44C640.349 117.371 635.742 118.337 630.69 118.337Z" fill="#06AE0B"/>
</g>
<defs>
<filter id="filter0_f_10_805" x="0.921631" y="0.659966" width="697.519" height="158.012" filterUnits="userSpaceOnUse" color-interpolation-filters="sRGB">
<feFlood flood-opacity="0" result="BackgroundImageFix"/>
<feBlend mode="normal" in="SourceGraphic" in2="BackgroundImageFix" result="shape"/>
<feGaussianBlur stdDeviation="20" result="effect1_foregroundBlur_10_805"/>
</filter>
</defs>
</svg>
